<?xml version="1.0" encoding="UTF-8"?>
<svg width="96" height="96" viewBox="0 0 96 96" fill="none" xmlns="http://www.w3.org/2000/svg">
  <defs>
    <linearGradient id="sun" x1="12" y1="12" x2="84" y2="84" gradientUnits="userSpaceOnUse">
      <stop stop-color="#FFE28A"/>
      <stop offset="1" stop-color="#FFC845"/>
    </linearGradient>
  </defs>
  <rect x="6" y="6" width="84" height="84" rx="24" fill="url(#sun)"/>
  <path
    d="M30 60.5C30 67 35.3 70.2 43 70.2C50.3 70.2 56 67.1 56 61.3C56 57.5 53.6 54.8 47.9 53C42.6 51.3 41.6 50.5 41.6 48.7C41.6 47.2 43 46.2 45.4 46.2C47.9 46.2 50.6 47.2 53.1 49.1L58.2 41.8C55.1 39.3 50.2 37.6 45.2 37.6C36.5 37.6 31 42 31 48.9C31 52.7 33 55.5 38.6 57.3C44.1 59 45.5 59.9 45.5 61.7C45.5 63.4 44 64.3 41.1 64.3C38.1 64.3 34.8 63.2 32.1 61.2L30 60.5Z"
    fill="#0A3D2E"
  />
  <path
    d="M68 36H59.4V69H68C79.1 69 86 63.2 86 52.5C86 41.6 79 36 68 36ZM74.5 52.5C74.5 57.8 72 60.7 66.3 60.7H65.5V43.3H66.3C72 43.3 74.5 46.2 74.5 52.5Z"
    fill="#0A3D2E"
  />
</svg>
