<svg width="1200" height="900" viewBox="0 0 1200 900" fill="none" xmlns="http://www.w3.org/2000/svg">
  <defs>
    <linearGradient id="bg" x1="0" y1="0" x2="0" y2="1">
      <stop offset="0%" stop-color="#F0FFF6" />
      <stop offset="100%" stop-color="#F9FFE3" />
    </linearGradient>
    <linearGradient id="shadow" x1="0" y1="0" x2="1" y2="0">
      <stop offset="0%" stop-color="#D7EFD4" />
      <stop offset="100%" stop-color="#E8F4C7" />
    </linearGradient>
  </defs>
  <rect width="1200" height="900" rx="48" fill="url(#bg)" />
  <ellipse cx="600" cy="760" rx="400" ry="90" fill="url(#shadow)" />
  <!-- Figure 1 -->
  <g transform="translate(210,230)">
    <circle cx="110" cy="80" r="60" fill="#F2C7A5" />
    <rect x="40" y="140" width="140" height="220" rx="50" fill="#0F6F4B" />
    <rect x="60" y="360" width="40" height="150" rx="20" fill="#0F6F4B" />
    <rect x="140" y="360" width="40" height="150" rx="20" fill="#0F6F4B" />
    <rect x="20" y="200" width="40" height="120" rx="20" fill="#F2C7A5" />
    <rect x="180" y="200" width="40" height="120" rx="20" fill="#F2C7A5" />
    <circle cx="110" cy="90" r="65" stroke="#0F6F4B" stroke-width="8" fill="none" />
    <rect x="70" y="430" width="80" height="35" rx="16" fill="#FFCC4D" />
  </g>
  <!-- Figure 2 -->
  <g transform="translate(440,190)">
    <circle cx="110" cy="70" r="60" fill="#C47B5F" />
    <rect x="45" y="130" width="130" height="210" rx="40" fill="#1E8B60" />
    <rect x="70" y="320" width="35" height="170" rx="18" fill="#1E8B60" />
    <rect x="150" y="320" width="35" height="170" rx="18" fill="#1E8B60" />
    <rect x="20" y="190" width="40" height="110" rx="18" fill="#C47B5F" />
    <rect x="180" y="190" width="40" height="110" rx="18" fill="#C47B5F" />
    <path d="M60 150 H160" stroke="#FFDD66" stroke-width="12" stroke-linecap="round" />
    <rect x="80" y="420" width="70" height="30" rx="14" fill="#0F6F4B" />
  </g>
  <!-- Figure 3 -->
  <g transform="translate(640,210)">
    <circle cx="120" cy="75" r="60" fill="#F7D7C4" />
    <rect x="55" y="135" width="140" height="230" rx="45" fill="#F4B73F" />
    <rect x="75" y="340" width="40" height="165" rx="18" fill="#F4B73F" />
    <rect x="170" y="340" width="40" height="165" rx="18" fill="#F4B73F" />
    <rect x="30" y="205" width="40" height="120" rx="18" fill="#F7D7C4" />
    <rect x="200" y="205" width="40" height="120" rx="18" fill="#F7D7C4" />
    <circle cx="120" cy="85" r="70" stroke="#F4B73F" stroke-width="8" fill="none" />
    <rect x="95" y="440" width="50" height="32" rx="15" fill="#0B4D32" />
  </g>
  <!-- Figure 4 -->
  <g transform="translate(880,230)">
    <circle cx="100" cy="80" r="60" fill="#E9B08B" />
    <rect x="35" y="140" width="130" height="220" rx="48" fill="#0B4D32" />
    <rect x="55" y="360" width="35" height="150" rx="18" fill="#0B4D32" />
    <rect x="140" y="360" width="35" height="150" rx="18" fill="#0B4D32" />
    <rect x="15" y="210" width="40" height="120" rx="18" fill="#E9B08B" />
    <rect x="170" y="210" width="40" height="120" rx="18" fill="#E9B08B" />
    <path d="M60 150 H150" stroke="#FAD64A" stroke-width="12" stroke-linecap="round" />
    <rect x="70" y="430" width="70" height="34" rx="16" fill="#1E8B60" />
  </g>
  <text x="600" y="140" text-anchor="middle" fill="#0F6F4B" font-size="42" font-weight="600" font-family="'Inter', 'Segoe UI', sans-serif">
    Gemeinsam für erstklassige Services
  </text>
  <text x="600" y="190" text-anchor="middle" fill="#4A6F61" font-size="22" font-weight="400" font-family="'Inter', 'Segoe UI', sans-serif">
    Saubio Partner:innen aus ganz Europa – flexibel, geprüft, versichert
  </text>
</svg>
